<svg aria-hidden="true" style="position: absolute; width: 0; height: 0; overflow: hidden;" version="1.1" xmlns="http://www.w3.org/2000/svg" xmlns:xlink="http://www.w3.org/1999/xlink">
<defs>
<symbol id="burger" viewBox="0 0 32 32">
<path d="M2.667 7.993c0-0.733 0.595-1.327 1.327-1.327h10.68c0.352 0 0.689 0.14 0.938 0.389s0.389 0.586 0.389 0.938c0 0.352-0.14 0.689-0.389 0.938s-0.586 0.389-0.938 0.389h-10.68c-0.352 0-0.689-0.14-0.938-0.389s-0.389-0.586-0.389-0.938zM2.667 16c0-0.733 0.595-1.327 1.327-1.327h24.013c0.352 0 0.689 0.14 0.938 0.389s0.389 0.586 0.389 0.938c0 0.352-0.14 0.689-0.389 0.938s-0.586 0.389-0.938 0.389h-24.013c-0.352 0-0.689-0.14-0.938-0.389s-0.389-0.586-0.389-0.938zM3.993 22.68c-0.352 0-0.689 0.14-0.938 0.389s-0.389 0.586-0.389 0.938c0 0.352 0.14 0.689 0.389 0.938s0.586 0.389 0.938 0.389h16.013c0.352 0 0.689-0.14 0.938-0.389s0.389-0.586 0.389-0.938c0-0.352-0.14-0.689-0.389-0.938s-0.586-0.389-0.938-0.389h-16.013z"></path>
</symbol>
<symbol id="facebook" viewBox="0 0 32 32">
<path d="M19.52 4.64c0.24 0 0.48 0 0.96 0v3.6c-0.24 0-0.72 0-1.2 0s-0.96 0-1.2 0.24c-0.24 0.24-0.24 0.48-0.24 1.040 0 0.48 0 0.8 0 1.28h2.64v3.040h-2.64v13.2h-4.080v-13.28h-2.16v-3.040h2.16v-1.040c0-1.76 0.24-3.040 0.72-3.6 0.72-1.040 2.16-1.52 4.32-1.52 0.24 0.080 0.48 0.080 0.72 0.080z"></path>
</symbol>
<symbol id="instagram" viewBox="0 0 30 32">
<path d="M25.532 8.858c-0.013-0.885-0.177-1.763-0.491-2.59-0.549-1.413-1.667-2.53-3.083-3.077-0.818-0.307-1.683-0.472-2.559-0.491-1.126-0.050-1.483-0.064-4.342-0.064s-3.225 0-4.343 0.064c-0.875 0.019-1.74 0.183-2.558 0.491-1.415 0.547-2.535 1.664-3.082 3.077-0.308 0.817-0.474 1.681-0.491 2.554-0.050 1.126-0.066 1.482-0.066 4.336s0 3.219 0.066 4.336c0.018 0.874 0.183 1.737 0.491 2.556 0.549 1.412 1.667 2.529 3.084 3.076 0.815 0.318 1.68 0.498 2.558 0.526 1.127 0.050 1.485 0.066 4.343 0.066s3.225 0 4.343-0.066c0.875-0.017 1.74-0.182 2.559-0.49 1.415-0.548 2.533-1.666 3.083-3.077 0.308-0.818 0.473-1.681 0.491-2.556 0.050-1.124 0.066-1.481 0.066-4.336-0.002-2.854-0.002-3.216-0.068-4.335zM15.051 18.555c-2.99 0-5.412-2.418-5.412-5.403s2.422-5.403 5.412-5.403c2.988 0 5.412 2.418 5.412 5.403s-2.425 5.403-5.412 5.403zM20.678 8.809c-0.699 0-1.262-0.563-1.262-1.26s0.563-1.26 1.262-1.26c0.697 0 1.261 0.563 1.261 1.26s-0.564 1.26-1.261 1.26z"></path>
<path d="M15.052 16.451c1.821 0 3.297-1.476 3.297-3.297s-1.476-3.297-3.297-3.297c-1.821 0-3.297 1.476-3.297 3.297s1.476 3.297 3.297 3.297z"></path>
</symbol>
<symbol id="youtube" viewBox="0 0 32 32">
<path d="M24.24 6c-1.36-0.080-4.16-0.16-8.4-0.16h-0.56c-4.080 0-6.8 0.080-8.16 0.24-1.84 0.16-3.12 0.64-3.84 1.28-0.64 0.56-1.12 1.6-1.28 2.96-0.080 0.88-0.16 2.72-0.16 5.52v0.4c0 2.64 0.080 4.48 0.24 5.36 0.24 1.28 0.64 2.24 1.44 2.8 0.8 0.64 2.16 1.040 4.080 1.2 1.36 0.080 4.16 0.16 8.4 0.16h0.56c4.080 0 6.8-0.080 8.16-0.24 1.84-0.16 3.12-0.64 3.84-1.28 0.64-0.56 1.12-1.6 1.28-2.96 0.080-0.88 0.16-2.72 0.16-5.52v-0.4c0-2.64-0.080-4.48-0.24-5.36-0.24-1.28-0.64-2.24-1.44-2.8-0.8-0.64-2.16-1.040-4.080-1.2zM21.12 15.84l-8.8 5.28v-10.56l8.8 5.28z"></path>
</symbol>
<symbol id="heart" viewBox="0 0 32 32">
<path d="M29.415 4.545c-1.676-1.676-3.894-2.591-6.262-2.591s-4.593 0.923-6.268 2.598l-0.875 0.875-0.889-0.889c-1.676-1.676-3.908-2.605-6.275-2.605-2.361 0-4.586 0.923-6.255 2.591-1.676 1.676-2.598 3.901-2.591 6.268 0 2.368 0.929 4.586 2.605 6.262l12.74 12.74c0.176 0.176 0.414 0.271 0.644 0.271s0.468-0.088 0.644-0.265l12.767-12.72c1.676-1.676 2.598-3.901 2.598-6.268 0.007-2.368-0.909-4.593-2.585-6.268zM28.113 15.786l-12.123 12.075-12.096-12.096c-1.33-1.33-2.062-3.094-2.062-4.973s0.726-3.643 2.056-4.966c1.323-1.323 3.087-2.056 4.959-2.056 1.879 0 3.65 0.733 4.979 2.062l1.533 1.533c0.36 0.36 0.936 0.36 1.296 0l1.52-1.52c1.33-1.33 3.1-2.062 4.973-2.062s3.636 0.733 4.966 2.056c1.33 1.33 2.056 3.094 2.056 4.973 0.007 1.879-0.726 3.643-2.056 4.973z"></path>
</symbol>
<symbol id="x" viewBox="0 0 32 32">
<path d="M18.828 16l12.586-12.586c0.362-0.362 0.586-0.862 0.586-1.414 0-1.105-0.895-2-2-2-0.552 0-1.052 0.224-1.414 0.586l-12.586 12.586-12.586-12.586c-0.362-0.362-0.862-0.586-1.414-0.586-1.105 0-2 0.895-2 2 0 0.552 0.224 1.052 0.586 1.414v0l12.586 12.586-12.586 12.586c-0.362 0.362-0.586 0.862-0.586 1.414 0 1.105 0.895 2 2 2 0.552 0 1.052-0.224 1.414-0.586l12.586-12.586 12.586 12.586c0.362 0.362 0.862 0.586 1.414 0.586 1.105 0 2-0.895 2-2 0-0.552-0.224-1.052-0.586-1.414v0z"></path>
</symbol>
<symbol id="left-arrow" viewBox="0 0 32 32">
<path d="M9.918 16.001l15.016-13.715c0.524-0.523 0.524-1.371 0-1.894s-1.375-0.523-1.899 0l-15.979 14.594c-0.28 0.279-0.399 0.65-0.38 1.014-0.019 0.365 0.1 0.735 0.38 1.014l15.979 14.594c0.524 0.523 1.375 0.523 1.899 0s0.524-1.371 0-1.894l-15.016-13.713z"></path>
</symbol>
<symbol id="right-arrow" viewBox="0 0 32 32">
<path d="M24.963 14.985l-16.013-14.593c-0.525-0.523-1.378-0.523-1.903 0s-0.525 1.371 0 1.894l15.048 13.714-15.046 13.714c-0.525 0.523-0.525 1.371 0 1.894s1.378 0.523 1.903 0l16.013-14.593c0.28-0.279 0.4-0.648 0.381-1.014 0.017-0.367-0.103-0.736-0.383-1.016z"></path>
</symbol>
<symbol id="logo" viewBox="0 0 32 32">
<path fill="#000" style="fill: var(--color1, #000)" d="M28.129 18.563l-6.748-15.457-1.471-1.020-1.725-0.549-2.334-0.628-2.74 1.177-1.826 1.020 6.9 15.457h9.944z"></path>
<path fill="#000" style="fill: var(--color1, #000)" d="M3.913 13.395l6.748 15.493 1.471 1.022 1.725 0.551 2.334 0.629 2.74-1.18 1.826-1.022-6.9-15.493h-9.944z"></path>
<path fill="#fff" style="fill: var(--color2, #fff)" d="M10.924 3.309l-10.476 15.142 10.476 0.112 7.573-15.255c0.532-1.561 2.195-0.65 2.96 0-3.271-5.993-8.385-2.497-10.533 0z"></path>
<path fill="#fff" style="fill: var(--color2, #fff)" d="M21.076 28.691l10.476-15.142-10.476-0.112-7.573 15.255c-0.532 1.561-2.195 0.65-2.961 0 3.271 5.993 8.385 2.497 10.533 0z"></path>
</symbol>
</svg>
