<svg xmlns="http://www.w3.org/2000/svg" xml:space="preserve" id="Слой_1" x="0" y="0" style="enable-background:new 0 0 100 100" version="1.1" viewBox="0 0 100 100"><style>.st3{fill:#a9c0d0}</style><linearGradient id="SVGID_1_" x1="33.456" x2="68.157" y1="49.55" y2="49.55" gradientUnits="userSpaceOnUse"><stop offset="0" style="stop-color:#dff5fb"/><stop offset=".25" style="stop-color:#d3eef6"/><stop offset="1" style="stop-color:#aed8e6"/></linearGradient><path d="M53 49.5c0-2.5 2.6-4.2 10.2-12s4.3-17.9 4.3-17.9H34.2s-3.3 10.1 4.3 17.9 10.2 9.5 10.2 12-2.6 4.2-10.2 12-4.3 17.9-4.3 17.9H67.5s3.3-10.1-4.3-17.9c-7.6-7.8-10.2-9.4-10.2-12z" style="fill:url(#SVGID_1_)"/><linearGradient id="SVGID_2_" x1="66.848" x2="17.908" y1="-23.433" y2="102.561" gradientUnits="userSpaceOnUse"><stop offset="0" style="stop-color:#f28b6c"/><stop offset="1" style="stop-color:#c7586b"/></linearGradient><path d="M71 21.1H30.3c-1.2 0-2.2-1-2.2-2.2v-1.5c0-1.2 1-2.2 2.2-2.2H71c1.2 0 2.2 1 2.2 2.2v1.5c0 1.2-1 2.2-2.2 2.2z" style="fill:url(#SVGID_2_)"/><linearGradient id="SVGID_3_" x1="88.084" x2="39.145" y1="-16.576" y2="109.418" gradientUnits="userSpaceOnUse"><stop offset="0" style="stop-color:#f28b6c"/><stop offset="1" style="stop-color:#c7586b"/></linearGradient><path d="M71.2 82.3H30.5c-1.2 0-2.2-1-2.2-2.2v-1.5c0-1.2 1-2.2 2.2-2.2h40.7c1.2 0 2.2 1 2.2 2.2v1.5c-.1 1.3-1.1 2.2-2.2 2.2z" style="fill:url(#SVGID_3_)"/><path d="M36.9 32.5c.6 1.8 1.7 3.6 3.3 5.3 6.5 6.7 10.1 8.1 10.1 10.2h1c0-2.1 3.6-3.6 10.1-10.2.9-.9 1.6-1.9 2.2-2.9-12.6.2-21.9-1.3-26.7-2.4zM36.9 75.4h26.7l-12.8-7.6zM50.3 48.1l.5 19.7.5-19.7z" class="st3"/><linearGradient id="SVGID_4_" x1="78.346" x2="38.3" y1="24.262" y2="34.104" gradientUnits="userSpaceOnUse"><stop offset="0" style="stop-color:#dff5fb"/><stop offset=".25" style="stop-color:#d3eef6"/><stop offset="1" style="stop-color:#aed8e6"/></linearGradient><path d="M66.3 22.6s.9 4.5-1.6 9.7h-2.6s2.8-4.8 3.2-9.2l1-.5z" style="fill:url(#SVGID_4_)"/></svg>